<?xml version="1.0" encoding="UTF-8"?>
<!DOCTYPE svg PUBLIC "-//W3C//DTD SVG 1.1//EN" "http://www.w3.org/Graphics/SVG/1.1/DTD/svg11.dtd">
<svg version="1.1" id="Layer_1" xmlns="http://www.w3.org/2000/svg" xmlns:xlink="http://www.w3.org/1999/xlink" x="0px" y="0px" width="24px" height="24px" viewBox="0 0 24 24" enable-background="new 0 0 24 24" xml:space="preserve">
  <g id="icon">
    <circle cx="12" cy="12" r="11" fill="#6EBF3A"/>
    <path d="M17.0444,7.0608c-1.2327,-1.2337,-2.872,-1.9135,-4.6186,-1.9141c-3.5987,0,-6.5276,2.9278,-6.529,6.5265c-0.0005,1.1503,0.3002,2.2732,0.8715,3.263l-0.9263,3.3822l3.4611,-0.9076c0.9536,0.52,2.0273,0.794,3.12,0.7944h0.0027c3.5983,0,6.5275,-2.9281,6.5289,-6.5269C18.9556,9.9343,18.2771,8.2945,17.0444,7.0608L17.0444,7.0608zM12.426,17.1029h-0.0022c-0.9738,-0.0004,-1.9288,-0.2619,-2.762,-0.7562l-0.1982,-0.1176l-2.0539,0.5386l0.5482,-2.0019l-0.1291,-0.2053c-0.5432,-0.8637,-0.8301,-1.8621,-0.8297,-2.8871c0.0012,-2.9911,2.4356,-5.4246,5.4289,-5.4246c1.4494,0.0006,2.812,0.5656,3.8365,1.591s1.5885,2.3884,1.588,3.8379C17.8514,14.6692,15.417,17.1029,12.426,17.1029L12.426,17.1029zM15.4026,13.0399c-0.1632,-0.0816,-0.9652,-0.4762,-1.1147,-0.5306c-0.1495,-0.0544,-0.2583,-0.0816,-0.3671,0.0816c-0.1087,0.1633,-0.4214,0.5306,-0.5166,0.6394c-0.0952,0.1088,-0.1903,0.1225,-0.3534,0.0408c-0.1631,-0.0816,-0.6888,-0.2538,-1.3119,-0.8094c-0.4849,-0.4324,-0.8124,-0.9665,-0.9075,-1.1298c-0.0952,-0.1633,-0.0101,-0.2515,0.0715,-0.3328c0.0734,-0.0731,0.1631,-0.1905,0.2447,-0.2857c0.0816,-0.0952,0.1088,-0.1633,0.1631,-0.2721c0.0544,-0.1088,0.0272,-0.2041,-0.0136,-0.2857c-0.0408,-0.0816,-0.367,-0.8844,-0.503,-1.2109c-0.1324,-0.318,-0.2669,-0.275,-0.3671,-0.28c-0.0951,-0.0047,-0.2039,-0.0057,-0.3127,-0.0057c-0.1087,0,-0.2855,0.0408,-0.435,0.2041c-0.1495,0.1633,-0.571,0.5578,-0.571,1.3605s0.5845,1.5782,0.6661,1.687c0.0816,0.1088,1.1503,1.7561,2.7868,2.4625c0.3892,0.168,0.6931,0.2684,0.93,0.3435c0.3908,0.1241,0.7464,0.1066,1.0276,0.0646c0.3134,-0.0468,0.9652,-0.3945,1.1011,-0.7755c0.1359,-0.381,0.1359,-0.7075,0.0952,-0.7755C15.6745,13.1624,15.5657,13.1215,15.4026,13.0399L15.4026,13.0399z" fill="#FFFFFF"/>
    <path d="M4.2218,19.7782C6.2124,21.7688,8.9624,23,12,23c6.0751,0,11,-4.9249,11,-11c0,-3.0376,-1.2312,-5.7876,-3.2218,-7.7782L4.2218,19.7782z" fill="#231F20" opacity="0.1"/>
  </g>
</svg>
